<?xml version="1.0" encoding="UTF-8"?>
<svg id="Layer_2" data-name="Layer 2" xmlns="http://www.w3.org/2000/svg" viewBox="0 0 805.06 953.31">
  <defs>
    <style>
      .cls-1 {
        fill: #fff;
      }
    </style>
  </defs>
  <g id="Layer_1-2" data-name="Layer 1">
    <g>
      <path class="cls-1" d="M586.67,331.29v-7.24c-40.97-13.6-84.13-17.14-118.17-46.13-21.01-17.9-36.38-45.95-45.37-71.79-5.68-16.35-8.85-45.65-15.15-58.71-1.68-3.47-2.78-5.22-7.02-4.41-13.61,63.77-28.07,113.7-86.8,148.8-31.88,19.06-62.41,21.71-96.61,33.32.11,3.14-1.11,4.4,1.61,6.57,9.24,7.39,53.69,17.15,68.51,22.68,44.77,16.71,80.62,45.12,91.73,94.19,41.98,185.4-236.16,223.99-296.16,66.99-19.15-50.11-12.15-91.66,10.8-138.27,52.31-106.21,126.57-209.08,182.56-314.1,50.45-71.87,161.16-84.55,227.41-27.1,21.38,18.54,35.51,45.6,50.17,69.53,50.67,82.71,108.59,179.18,152.79,264.91,25.82,50.1,36,92.12,13.52,146.86-64.76,157.68-337.82,112.35-295.38-68.76,18.64-79.55,93.59-97.03,161.56-117.34Z"/>
      <g>
        <path class="cls-1" d="M0,950.1v-160.46h29.11l65.56,151.75h2.75v-151.75h14.67v160.46h-29.11l-65.56-151.98h-2.75v151.98H0Z"/>
        <path class="cls-1" d="M158.86,819.43c-3.36,0-6.19-1.15-8.48-3.44-2.29-2.29-3.44-5.12-3.44-8.48s1.15-6.38,3.44-8.6c2.29-2.21,5.12-3.32,8.48-3.32s6.38,1.11,8.6,3.32c2.21,2.22,3.32,5.08,3.32,8.6s-1.11,6.19-3.32,8.48c-2.22,2.29-5.08,3.44-8.6,3.44ZM151.98,950.1v-111.41h13.75v111.41h-13.75Z"/>
        <path class="cls-1" d="M206.08,950.1v-111.41h13.3v13.98h2.75c2.14-5.04,5.31-8.71,9.51-11,4.2-2.29,10.05-3.44,17.54-3.44h13.07v12.84h-14.67c-8.41,0-15.13,2.37-20.17,7.11-5.04,4.74-7.57,12.15-7.57,22.24v69.69h-13.75Z"/>
        <path class="cls-1" d="M285.62,950.1v-160.46h56.16l27.74,139.83h4.13l27.74-139.83h56.16v160.46h-29.34v-138.23h-4.13l-27.51,138.23h-49.97l-27.51-138.23h-4.13v138.23h-29.34Z"/>
        <path class="cls-1" d="M503.16,823.1c-5.2,0-9.59-1.68-13.18-5.04-3.59-3.36-5.39-7.79-5.39-13.3s1.79-9.93,5.39-13.3c3.59-3.36,7.98-5.04,13.18-5.04s9.78,1.68,13.3,5.04c3.51,3.36,5.27,7.79,5.27,13.3s-1.76,9.94-5.27,13.3c-3.52,3.36-7.95,5.04-13.3,5.04ZM488.72,950.1v-113.7h28.88v113.7h-28.88Z"/>
        <path class="cls-1" d="M549.69,950.1v-113.7h28.42v14.9h4.13c1.83-3.97,5.27-7.75,10.32-11.35,5.04-3.59,12.68-5.39,22.92-5.39,8.86,0,16.62,2.03,23.27,6.07,6.65,4.05,11.81,9.63,15.47,16.73,3.67,7.11,5.5,15.4,5.5,24.87v67.85h-28.88v-65.56c0-8.56-2.1-14.98-6.3-19.26-4.21-4.28-10.2-6.42-17.99-6.42-8.87,0-15.74,2.94-20.63,8.83-4.89,5.89-7.34,14.1-7.34,24.64v57.77h-28.88Z"/>
        <path class="cls-1" d="M736.75,953.31c-9.02,0-17.46-2.26-25.33-6.76-7.87-4.51-14.18-11.12-18.91-19.83-4.74-8.71-7.11-19.26-7.11-31.63v-3.67c0-12.38,2.37-22.92,7.11-31.63,4.74-8.71,11-15.32,18.8-19.83,7.79-4.51,16.28-6.76,25.45-6.76,6.88,0,12.64.8,17.31,2.41,4.66,1.6,8.44,3.63,11.35,6.07,2.9,2.45,5.12,5.04,6.65,7.79h4.13v-59.83h28.88v160.46h-28.42v-13.75h-4.13c-2.6,4.28-6.61,8.18-12.03,11.69-5.43,3.51-13.33,5.27-23.73,5.27ZM745.46,928.09c8.86,0,16.28-2.87,22.24-8.6s8.94-14.1,8.94-25.1v-2.29c0-11-2.94-19.37-8.83-25.1-5.88-5.73-13.33-8.6-22.35-8.6s-16.28,2.87-22.24,8.6c-5.96,5.73-8.94,14.1-8.94,25.1v2.29c0,11,2.98,19.37,8.94,25.1,5.96,5.73,13.37,8.6,22.24,8.6Z"/>
      </g>
    </g>
  </g>
</svg>