<?xml version="1.0" encoding="UTF-8"?>
<svg id="Layer_2" data-name="Layer 2" xmlns="http://www.w3.org/2000/svg" viewBox="0 0 2671.14 553.71">
  <defs>
    <style>
      .cls-1 {
        fill: #fff;
      }
    </style>
  </defs>
  <g id="Layer_1-2" data-name="Layer 1">
    <g>
      <path class="cls-1" d="M0,543.06V10.65h96.59l217.53,503.51h9.13V10.65h48.68v532.41h-96.59L57.81,38.79h-9.13v504.27H0Z"/>
      <path class="cls-1" d="M527.08,109.52c-11.16,0-20.54-3.8-28.14-11.41-7.61-7.61-11.41-16.98-11.41-28.14s3.8-21.17,11.41-28.52c7.61-7.34,16.98-11.03,28.14-11.03s21.17,3.68,28.52,11.03c7.34,7.36,11.03,16.86,11.03,28.52s-3.69,20.54-11.03,28.14c-7.36,7.61-16.86,11.41-28.52,11.41ZM504.27,543.06V173.41h45.63v369.64h-45.63Z"/>
      <path class="cls-1" d="M683.76,543.06V173.41h44.11v46.4h9.13c7.09-16.73,17.61-28.9,31.56-36.51,13.94-7.61,33.33-11.41,58.19-11.41h43.35v42.59h-48.68c-27.89,0-50.2,7.87-66.93,23.58-16.73,15.72-25.1,40.31-25.1,73.78v231.22h-45.63Z"/>
      <path class="cls-1" d="M947.67,543.06V10.65h186.34l92.03,463.96h13.69L1331.77,10.65h186.34v532.41h-97.35V84.42h-13.69l-91.27,458.63h-165.81l-91.27-458.63h-13.69v458.63h-97.35Z"/>
      <path class="cls-1" d="M1669.46,121.69c-17.24,0-31.83-5.57-43.73-16.73-11.92-11.15-17.87-25.86-17.87-44.11s5.95-32.95,17.87-44.11c11.91-11.15,26.49-16.73,43.73-16.73s32.44,5.59,44.11,16.73c11.66,11.16,17.49,25.86,17.49,44.11s-5.84,32.97-17.49,44.11c-11.67,11.16-26.37,16.73-44.11,16.73ZM1621.54,543.06V165.81h95.83v377.25h-95.83Z"/>
      <path class="cls-1" d="M1823.85,543.06V165.81h94.31v49.44h13.69c6.08-13.18,17.49-25.73,34.23-37.65,16.73-11.91,42.08-17.87,76.06-17.87,29.4,0,55.14,6.73,77.2,20.16,22.06,13.44,39.17,31.94,51.34,55.52,12.17,23.58,18.25,51.09,18.25,82.52v225.13h-95.83v-217.53c0-28.39-6.98-49.69-20.92-63.89-13.95-14.19-33.85-21.3-59.71-21.3-29.41,0-52.23,9.77-68.45,29.28-16.23,19.53-24.34,46.78-24.34,81.76v191.67h-95.83Z"/>
      <path class="cls-1" d="M2444.48,553.71c-29.92,0-57.93-7.49-84.04-22.44-26.12-14.95-47.04-36.89-62.75-65.79-15.72-28.9-23.58-63.89-23.58-104.96v-12.17c0-41.07,7.85-76.06,23.58-104.96,15.71-28.9,36.51-50.83,62.37-65.79,25.86-14.95,54-22.44,84.42-22.44,22.82,0,41.95,2.66,57.42,7.99,15.46,5.32,28.01,12.05,37.65,20.16,9.63,8.12,16.98,16.73,22.06,25.86h13.69V10.65h95.83v532.41h-94.31v-45.63h-13.69c-8.63,14.2-21.94,27.13-39.93,38.79-18,11.66-44.24,17.49-78.72,17.49ZM2473.39,470.04c29.4,0,54-9.51,73.78-28.52,19.77-19.01,29.66-46.78,29.66-83.28v-7.61c0-36.51-9.77-64.27-29.28-83.28-19.53-19.01-44.24-28.52-74.16-28.52s-54,9.51-73.78,28.52c-19.77,19.01-29.66,46.78-29.66,83.28v7.61c0,36.51,9.89,64.27,29.66,83.28,19.77,19.01,44.36,28.52,73.78,28.52Z"/>
    </g>
  </g>
</svg>