<svg width="89" height="82" viewBox="0 0 89 82" fill="none" xmlns="http://www.w3.org/2000/svg">
<path d="M68.7556 44.2752V43.3077C63.2793 41.4882 57.5144 41.0178 52.9656 37.1435C50.1564 34.7515 48.1061 31.0015 46.9035 27.5488C46.1446 25.3654 45.723 21.4467 44.8798 19.7027C44.6579 19.2367 44.507 19.0059 43.9434 19.1124C42.1239 27.6331 40.1934 34.3033 32.3428 38.9941C28.0824 41.5415 24.004 41.8965 19.433 43.4453C19.4463 43.8625 19.2865 44.0311 19.646 44.324C20.8797 45.3137 26.8221 46.614 28.8014 47.3551C34.7836 49.5873 39.5721 53.3862 41.0588 59.9409C46.6683 84.7132 9.50102 89.87 1.48177 68.8921C-1.07889 62.1954 -0.142495 56.6436 2.92408 50.4172C9.91374 36.2249 19.8368 22.4808 27.3191 8.44375C34.0602 -1.15982 48.8561 -2.85509 57.7053 4.82244C60.5633 7.29878 62.4494 10.9157 64.4109 14.1154C71.1831 25.1701 78.9228 38.0577 84.8296 49.5163C88.2823 56.2087 89.6403 61.827 86.6358 69.1406C77.982 90.2117 41.4937 84.154 47.1653 59.9542C49.655 49.3255 59.6713 46.9867 68.7556 44.2752Z" fill="white"/>
</svg>
