<svg width="48" height="48" viewBox="0 0 48 48" fill="none" xmlns="http://www.w3.org/2000/svg">
<rect x="1" y="1" width="46" height="46" rx="23" fill="white" fill-opacity="0.05"/>
<rect x="1" y="1" width="46" height="46" rx="23" stroke="url(#paint0_linear_100_242)" stroke-width="2"/>
<path d="M24.5 14.0117C24.3344 14.0039 24.1677 14 24 14C18.4778 14 14 18.2836 14 23.5667C14 26.1051 15.0333 28.4115 16.7189 30.1231C17.09 30.5 17.3378 31.0148 17.2378 31.5448C17.0728 32.4112 16.6987 33.2194 16.1511 33.893C17.592 34.161 19.0901 33.9197 20.375 33.2364C20.8292 32.9949 21.0563 32.8741 21.2165 32.8496C21.3768 32.8251 21.6063 32.8682 22.0654 32.9545C22.7032 33.0742 23.3507 33.1343 24 33.1334C29.5222 33.1334 34 28.8499 34 23.5667C34 23.3765 33.9942 23.1875 33.9827 23" stroke="white" stroke-width="1.5" stroke-linecap="round" stroke-linejoin="round"/>
<path d="M27 17.5H34M30.5 14V21" stroke="white" stroke-width="1.5" stroke-linecap="round" stroke-linejoin="round"/>
<path d="M23.9955 24H24.0045M27.991 24H28M20 24H20.009" stroke="white" stroke-width="2" stroke-linecap="round" stroke-linejoin="round"/>
<defs>
<linearGradient id="paint0_linear_100_242" x1="24" y1="0" x2="24" y2="48" gradientUnits="userSpaceOnUse">
<stop stop-color="white" stop-opacity="0.33"/>
<stop offset="1" stop-color="white" stop-opacity="0"/>
</linearGradient>
</defs>
</svg>
