<svg width="48" height="48" viewBox="0 0 48 48" fill="none" xmlns="http://www.w3.org/2000/svg">
<rect x="47" y="47" width="46" height="46" rx="23" transform="rotate(-180 47 47)" fill="white" fill-opacity="0.05"/>
<rect x="47" y="47" width="46" height="46" rx="23" transform="rotate(-180 47 47)" stroke="url(#paint0_linear_100_230)" stroke-width="2"/>
<path d="M29.075 23.3432L25.75 20.0182C25.5166 19.7848 25.4048 19.5126 25.4146 19.2015C25.4243 18.8904 25.5361 18.6182 25.75 18.3848C25.9833 18.1515 26.2604 18.03 26.5812 18.0203C26.9021 18.0105 27.1791 18.1223 27.4125 18.3557L32.75 23.6932C32.9833 23.9265 33.1 24.1987 33.1 24.5098C33.1 24.8209 32.9833 25.0932 32.75 25.3265L27.4125 30.664C27.1791 30.8973 26.9021 31.0091 26.5812 30.9994C26.2604 30.9897 25.9833 30.8682 25.75 30.6348C25.5361 30.4015 25.4243 30.1293 25.4146 29.8182C25.4048 29.5071 25.5166 29.2348 25.75 29.0015L29.075 25.6765L16.0666 25.6765C15.7361 25.6765 15.459 25.5647 15.2354 25.3411C15.0118 25.1175 14.9 24.8404 14.9 24.5098C14.9 24.1793 15.0118 23.9022 15.2354 23.6786C15.459 23.455 15.7361 23.3432 16.0666 23.3432L29.075 23.3432Z" fill="white"/>
<defs>
<linearGradient id="paint0_linear_100_230" x1="72" y1="48" x2="72" y2="96" gradientUnits="userSpaceOnUse">
<stop stop-color="white" stop-opacity="0.33"/>
<stop offset="1" stop-color="white" stop-opacity="0"/>
</linearGradient>
</defs>
</svg>
