<svg width="65" height="48" viewBox="0 0 65 48" fill="none" xmlns="http://www.w3.org/2000/svg">
<rect x="9.5" y="1" width="46" height="46" rx="23" fill="white" fill-opacity="0.05"/>
<rect x="9.5" y="1" width="46" height="46" rx="23" stroke="url(#paint0_linear_1_929)" stroke-width="2"/>
<path d="M27.425 24.6568L30.75 27.9818C30.9834 28.2152 31.0952 28.4874 31.0854 28.7985C31.0757 29.1096 30.9639 29.3818 30.75 29.6152C30.5167 29.8485 30.2396 29.97 29.9188 29.9797C29.5979 29.9895 29.3209 29.8777 29.0875 29.6443L23.75 24.3068C23.5167 24.0735 23.4 23.8013 23.4 23.4902C23.4 23.1791 23.5167 22.9068 23.75 22.6735L29.0875 17.336C29.3209 17.1027 29.5979 16.9909 29.9188 17.0006C30.2396 17.0103 30.5167 17.1318 30.75 17.3652C30.9639 17.5985 31.0757 17.8707 31.0854 18.1818C31.0952 18.4929 30.9834 18.7652 30.75 18.9985L27.425 22.3235H40.4334C40.7639 22.3235 41.041 22.4353 41.2646 22.6589C41.4882 22.8825 41.6 23.1596 41.6 23.4902C41.6 23.8207 41.4882 24.0978 41.2646 24.3214C41.041 24.545 40.7639 24.6568 40.4334 24.6568H27.425Z" fill="white"/>
<defs>
<linearGradient id="paint0_linear_1_929" x1="32.5" y1="0" x2="32.5" y2="48" gradientUnits="userSpaceOnUse">
<stop stop-color="white" stop-opacity="0.33"/>
<stop offset="1" stop-color="white" stop-opacity="0"/>
</linearGradient>
</defs>
</svg>
