<svg width="24" height="16" viewBox="0 0 24 16" fill="none" xmlns="http://www.w3.org/2000/svg">
<path d="M12.1116 3.21782L11.2899 0.650322C10.4916 -0.727837 9.89485 0.39177 9.55586 1.3868C9.22468 2.35911 9.17859 3.31654 9.02394 4.30922C8.99972 4.46592 8.99113 4.95403 8.79898 4.94541C8.83726 4.17133 8.7654 3.40429 8.64355 2.64195C8.33189 0.687929 7.65781 -0.546851 7.10949 2.25804C6.49634 5.39514 6.49712 10.6053 7.10949 13.7464C7.22118 14.3199 7.34225 15.0689 7.807 15.441C8.38657 15.5664 8.75056 12.7623 8.79586 12.3188C8.83335 11.9475 8.77477 11.5636 8.79898 11.1914C8.99113 11.1648 9.00128 11.5526 9.0255 11.6928C9.16375 12.5139 9.46525 15.5296 10.2573 15.9135C11.4484 16.4909 11.8171 13.4667 12.0475 12.7842C12.1819 13.4533 12.713 16.7299 13.9143 15.8516C14.5658 15.3752 15.1102 12.195 15.0321 11.3238C15.275 11.3747 15.2773 11.5847 15.3008 11.7837C15.3625 12.3032 15.5101 15.5695 16.2771 15.4371C16.7387 15.3572 17.0785 13.1525 17.1363 12.7027C17.4722 10.082 17.5433 3.86733 16.7622 1.41657C16.1451 -0.517862 15.6351 1.46045 15.4679 2.3928C15.3578 3.00706 15.3718 3.62837 15.3015 4.21912C15.2781 4.41813 15.2758 4.6281 15.0328 4.67903C15.1281 3.80935 14.5212 0.511644 13.8378 0.0948273C12.7372 -0.576624 12.1108 2.51346 12.1124 3.21625L12.1116 3.21782Z" fill="white"/>
<path d="M5.48952 0.964478C5.37704 1.4761 5.18333 1.98301 5.09975 2.50325C4.71077 4.92815 4.51238 12.557 5.37782 14.6842C5.45281 14.8683 5.51373 15.0493 5.68088 15.1746C6.08939 15.1825 6.36512 12.9777 6.40886 12.5852C6.70411 9.93387 6.79862 4.09374 6.10658 1.59519C6.04721 1.38129 5.92693 1.18777 5.86366 0.97623L5.48952 0.964478Z" fill="white"/>
<path d="M18.4103 0.959726C18.1408 0.894696 18.069 1.30995 18.0112 1.4878C17.2699 3.78342 17.3371 11.5713 17.8745 13.9884C17.969 14.4122 18.0479 14.8957 18.4119 15.1746C18.5493 15.1746 18.7696 14.4193 18.8133 14.2509C19.4999 11.6058 19.5054 4.51755 18.8391 1.85917C18.7884 1.65547 18.5978 1.00439 18.4103 0.958943V0.959726Z" fill="white"/>
<path d="M3.62661 1.88986C3.47898 2.48296 3.31964 3.09095 3.24465 3.7005C2.95175 6.07369 2.87598 11.0677 3.39306 13.3507C3.51179 13.8765 3.76174 14.6208 4.04761 13.6743C4.66389 11.6318 4.56626 5.77753 4.27257 3.56731C4.24132 3.33069 4.00544 1.60467 3.62661 1.89064V1.88986Z" fill="white"/>
<path d="M20.2037 14.2469C20.6044 14.0573 20.6161 13.4775 20.6934 13.078C20.8621 12.2052 20.9613 10.9641 21.0035 10.0662C21.0347 9.40732 20.9527 1.87641 20.3997 1.88738C20.1138 1.88268 20.0553 2.20391 19.9967 2.41389C19.4351 4.40317 19.4843 11.4342 19.9732 13.4799C20.0357 13.7416 20.1693 13.979 20.2045 14.2469H20.2037Z" fill="white"/>
<path d="M21.9932 3.35339C21.8276 3.35339 21.6987 4.17684 21.6784 4.3641C21.4386 6.62917 21.4253 9.37686 21.6784 11.6388C21.6987 11.8182 21.826 12.6511 21.9932 12.6495C22.2095 12.4466 22.2759 12.0541 22.3087 11.7728C22.5719 9.52573 22.5587 6.61271 22.3079 4.3641C22.2876 4.18468 22.1603 3.35339 21.9932 3.35339Z" fill="white"/>
<path d="M1.90199 12.6534C2.22692 12.727 2.19334 12.5312 2.25739 12.2852C2.44875 11.5549 2.53545 10.1893 2.56982 9.40348C2.65652 7.40167 2.50733 5.3121 2.16522 3.35181C1.72156 3.83757 1.67001 5.00497 1.63095 5.67172C1.49426 7.98693 1.65204 10.3617 1.90199 12.6542V12.6534Z" fill="white"/>
<path d="M0.577266 10.1266C0.816279 10.0584 0.832682 9.47078 0.84596 9.26864C0.869393 8.91059 0.9022 5.88005 0.642097 5.87378C0.182818 7.22295 0.295293 8.73274 0.577266 10.1266Z" fill="white"/>
<path d="M23.2522 9.9284C23.264 9.97305 23.4327 10.1321 23.5162 10.1274C23.724 9.97305 23.7146 6.07676 23.5162 5.8754C23.4311 5.86522 23.2522 6.05169 23.2522 6.07441C23.2522 6.9433 23.0851 9.27105 23.2522 9.9284Z" fill="white"/>
</svg>
